{
    "asset": {
        "generator": "Khronos glTF Blender I/O v3.2.40",
        "version": "2.0"
    },
    "scene": 0,
    "scenes": [
        {
            "name": "Scene",
            "nodes": [
        0,
        1,
        2,
        3
      ]
    }
  ],
    "nodes": [
        {
            "mesh": 0,
            "name": "Autoclave_prueba",
            "rotation": [
        0,
        0.9486151933670044,
        0,
        0.31643199920654297
      ],
            "scale": [
        0.06158076971769333,
        0.06158077344298363,
        0.06158076971769333
      ],
            "translation": [
        -7,
        0,
        7
      ]
    },
        {
            "mesh": 1,
            "name": "Autoclave_prueba.001",
            "rotation": [
        0,
        -0.8748821020126343,
        0,
        0.4843360185623169
      ],
            "scale": [
        0.06158076971769333,
        0.06158077344298363,
        0.06158076971769333
      ],
            "translation": [
        6.917654991149902,
        0,
        6.9975128173828125
      ]
    },
        {
            "mesh": 2,
            "name": "Autoclave_prueba.002",
            "rotation": [
        0,
        0.3042759895324707,
        0,
        0.952583909034729
      ],
            "scale": [
        0.06158077344298363,
        0.06158077344298363,
        0.06158077344298363
      ],
            "translation": [
        -7,
        0,
        -7
      ]
    },
        {
            "mesh": 3,
            "name": "Autoclave_prueba.003",
            "rotation": [
        0,
        -0.3800806999206543,
        0,
        0.9249533414840698
      ],
            "scale": [
        0.06158077344298363,
        0.06158077344298363,
        0.06158077344298363
      ],
            "translation": [
        7,
        0,
        -7
      ]
    }
  ],
    "materials": [
        {
            "doubleSided": true,
            "name": "Default OBJ",
            "pbrMetallicRoughness": {
                "baseColorTexture": {
                    "index": 0
                },
                "metallicFactor": 0,
                "roughnessFactor": 0.5
            }
    },
        {
            "doubleSided": true,
            "name": "Default OBJ.001",
            "pbrMetallicRoughness": {
                "baseColorTexture": {
                    "index": 1
                },
                "metallicFactor": 0,
                "roughnessFactor": 0.5
            }
    },
        {
            "doubleSided": true,
            "name": "Default OBJ.002",
            "pbrMetallicRoughness": {
                "baseColorTexture": {
                    "index": 2
                },
                "metallicFactor": 0,
                "roughnessFactor": 0.5
            }
    },
        {
            "doubleSided": true,
            "name": "Default OBJ.003",
            "pbrMetallicRoughness": {
                "baseColorTexture": {
                    "index": 3
                },
                "metallicFactor": 0,
                "roughnessFactor": 0.5
            }
    }
  ],
    "meshes": [
        {
            "name": "17206_Autoclave_v1",
            "primitives": [
                {
                    "attributes": {
                        "POSITION": 0,
                        "NORMAL": 1
                    },
                    "indices": 2,
                    "material": 0
        }
      ]
    },
        {
            "name": "17206_Autoclave_v1.001",
            "primitives": [
                {
                    "attributes": {
                        "POSITION": 3,
                        "NORMAL": 4
                    },
                    "indices": 2,
                    "material": 1
        }
      ]
    },
        {
            "name": "17206_Autoclave_v1.002",
            "primitives": [
                {
                    "attributes": {
                        "POSITION": 5,
                        "NORMAL": 6
                    },
                    "indices": 7,
                    "material": 2
        }
      ]
    },
        {
            "name": "17206_Autoclave_v1.003",
            "primitives": [
                {
                    "attributes": {
                        "POSITION": 8,
                        "NORMAL": 9
                    },
                    "indices": 2,
                    "material": 3
        }
      ]
    }
  ],
    "textures": [
        {
            "sampler": 0,
            "source": 0
    },
        {
            "sampler": 0,
            "source": 0
    },
        {
            "sampler": 0,
            "source": 0
    },
        {
            "sampler": 0,
            "source": 0
    }
  ],
    "images": [
        {
            "name": "Default OBJ Base Color",
            "uri": "Autoclave_base64_img0.png"
    }
  ],
    "accessors": [
        {
            "bufferView": 0,
            "componentType": 5126,
            "count": 170072,
            "max": [
        37.79119873046875,
        134.91400146484375,
        37.89289855957031
      ],
            "min": [
        -37.79119873046875,
        0,
        -37.89289855957031
      ],
            "type": "VEC3"
    },
        {
            "bufferView": 1,
            "componentType": 5126,
            "count": 170072,
            "type": "VEC3"
    },
        {
            "bufferView": 2,
            "componentType": 5125,
            "count": 257124,
            "type": "SCALAR"
    },
        {
            "bufferView": 3,
            "componentType": 5126,
            "count": 170072,
            "max": [
        37.79119873046875,
        134.91400146484375,
        37.89289855957031
      ],
            "min": [
        -37.79119873046875,
        0,
        -37.89289855957031
      ],
            "type": "VEC3"
    },
        {
            "bufferView": 4,
            "componentType": 5126,
            "count": 170072,
            "type": "VEC3"
    },
        {
            "bufferView": 5,
            "componentType": 5126,
            "count": 170074,
            "max": [
        37.79119873046875,
        134.91400146484375,
        37.89289855957031
      ],
            "min": [
        -37.79119873046875,
        0,
        -37.89289855957031
      ],
            "type": "VEC3"
    },
        {
            "bufferView": 6,
            "componentType": 5126,
            "count": 170074,
            "type": "VEC3"
    },
        {
            "bufferView": 7,
            "componentType": 5125,
            "count": 257124,
            "type": "SCALAR"
    },
        {
            "bufferView": 8,
            "componentType": 5126,
            "count": 170072,
            "max": [
        37.79119873046875,
        134.91400146484375,
        37.89289855957031
      ],
            "min": [
        -37.79119873046875,
        0,
        -37.89289855957031
      ],
            "type": "VEC3"
    },
        {
            "bufferView": 9,
            "componentType": 5126,
            "count": 170072,
            "type": "VEC3"
    }
  ],
    "bufferViews": [
        {
            "buffer": 0,
            "byteLength": 2040864,
            "byteOffset": 0
    },
        {
            "buffer": 0,
            "byteLength": 2040864,
            "byteOffset": 2040864
    },
        {
            "buffer": 0,
            "byteLength": 1028496,
            "byteOffset": 4081728
    },
        {
            "buffer": 0,
            "byteLength": 2040864,
            "byteOffset": 5110224
    },
        {
            "buffer": 0,
            "byteLength": 2040864,
            "byteOffset": 7151088
    },
        {
            "buffer": 0,
            "byteLength": 2040888,
            "byteOffset": 9191952
    },
        {
            "buffer": 0,
            "byteLength": 2040888,
            "byteOffset": 11232840
    },
        {
            "buffer": 0,
            "byteLength": 1028496,
            "byteOffset": 13273728
    },
        {
            "buffer": 0,
            "byteLength": 2040864,
            "byteOffset": 14302224
    },
        {
            "buffer": 0,
            "byteLength": 2040864,
            "byteOffset": 16343088
    }
  ],
    "samplers": [
        {
            "magFilter": 9729,
            "minFilter": 9987
    }
  ],
    "buffers": [
        {
            "uri": "Autoclave_base64_data.bin",
            "byteLength": 18383952
    }
  ]
}